# AST/ASF file generated using VICON BodyLanguage
# -----------------------------------------------
:version 1.10
:name VICON
:units
  mass 1.0
  length 0.45
  angle deg
:documentation
   .ast/.asf automatically generated from VICON data using
   VICON BodyBuilder and BodyLanguage model FoxedUp or BRILLIANT.MOD
:root
   order TX TY TZ RX RY RZ
   axis XYZ
   position 0 0 0  
   orientation 0 0 0 
:bonedata
  begin
     id 1 
     name lhipjoint
     direction 0.575328 -0.747301 0.332475 
     length 2.40933 
     axis 0 0 0  XYZ
  end
  begin
     id 2 
     name lfemur
     direction 0.34202 -0.939693 0  
     length 7.31453  
     axis 0 0 20  XYZ
    dof rx ry rz
    limits (-160.0 20.0)
           (-70.0 70.0)
           (-60.0 70.0)
  end
  begin
     id 3 
     name ltibia
     direction 0.34202 -0.939693 0   
     length 7.82185   
     axis 0 0 20   XYZ
    dof rx
    limits (-10.0 170.0)
  end
  begin
     id 4 
     name lfoot
     direction 0.0795993 -0.218697 0.972541   
     length 2.19173   
     axis -90 7.62852e-016 20   XYZ
    dof rx rz
    limits (-45.0 90.0)
           (-70.0 20.0)
  end
  begin
     id 5 
     name ltoes
     direction 1.53537e-011 -4.21894e-011 1   
     length 1.10023   
     axis -90 7.62852e-016 20   XYZ
    dof rx
    limits (-90.0 20.0)
  end
  begin
     id 6 
     name rhipjoint
     direction -0.513884 -0.783789 0.348708   
     length 2.29716  
     axis 0 0 0  XYZ 
  end
  begin
     id 7 
     name rfemur
     direction -0.34202 -0.939693 0   
     length 7.59573   
     axis 0 0 -20   XYZ
    dof rx ry rz
    limits (-160.0 20.0)
           (-70.0 70.0)
           (-70.0 60.0)
  end
  begin
     id 8 
     name rtibia
     direction -0.34202 -0.939693 0   
     length 7.66402   
     axis 0 0 -20   XYZ
    dof rx
    limits (-10.0 170.0)
 end
 begin
     id 9 
     name rfoot
     direction -0.137793 -0.378584 0.915253   
     length 2.27056  
     axis -90 -7.62852e-016 -20   XYZ
    dof rx rz
    limits (-45.0 90.0)
           (-20.0 70.0)
  end
  begin
     id 10 
     name rtoes
     direction -1.53493e-011 -4.22159e-011 1   
     length 1.11766   
     axis -90 -7.62852e-016 -20   XYZ
    dof rx
    limits (-90.0 20.0)
  end
  begin
     id 11 
     name lowerback
     direction -0.00732775 0.998356 -0.05685   
     length 2.16513   
     axis 0 0 0   XYZ
    dof rx ry rz
    limits (-20.0 45.0)
           (-30.0 30.0)
           (-30.0 30.0)
  end
  begin
     id 12 
     name upperback
     direction 0.0218081 0.999627 -0.0164647   
     length 2.16755   
     axis 0 0 0   XYZ
    dof rx ry rz
    limits (-20.0 45.0)
           (-30.0 30.0)
           (-30.0 30.0)
  end
  begin
     id 13 
     name thorax
     direction 0.02365 0.999661 0.0108914   
     length 2.16932   
     axis 0 0 0   XYZ
    dof rx ry rz
    limits (-20.0 45.0)
           (-30.0 30.0)
           (-30.0 30.0)
  end
  begin
     id 14 
     name lowerneck
     direction -0.0523929 0.978385 0.200044   
     length 1.63877   
     axis 0 0 0   XYZ
    dof rx ry rz
    limits (-20.0 45.0)
           (-30.0 30.0)
           (-30.0 30.0)
  end
  begin
     id 15 
     name upperneck
     direction 0.0448674 0.981321 -0.187074   
     length 1.69014   
     axis 0 0 0   XYZ
    dof rx ry rz
    limits (-20.0 45.0)
           (-30.0 30.0)
           (-30.0 30.0)
  end
  begin
     id 16
     name head
     direction 0.0199089 0.996118 -0.0857429  
     length 1.70094  
     axis 0 0 0   XYZ
    dof rx ry rz
    limits (-20.0 45.0)
           (-30.0 30.0)
           (-30.0 30.0)
  end
  begin
     id 17 
     name lclavicle
     direction 0.940366 0.30191 -0.156722  
     length 3.37521  
     axis 0 0 0   XYZ
    dof ry rz
    limits (-20.0 10.0)
           (0.0 20.0)
  end
  begin
     id 18 
     name lhumerus
     direction 1 -4.4897e-011 -1.7911e-027   
     length 5.25287   
     axis 180 -30 -90   XYZ
    dof rx ry rz
    limits (-60.0 90.0)
           (-90.0 90.0)
           (-90.0 90.0)
  end
  begin
     id 19
     name lradius
     direction 1 -4.48951e-011 1.04424e-027   
     length 3.51014   
     axis 180 -30 -90   XYZ
    dof rx
    limits (-10.0 170.0)
  end
  begin
     id 20
     name lwrist
     direction 1 -4.48997e-011 -9.5942e-028   
     length 1.75507   
     axis 8.48502e-016 90 90   XYZ
    dof ry
    limits (-180.0 0.0)
 end
  begin
     id 21 
     name lhand
     direction 1 -4.48831e-011 -1.90777e-027   
     length 0.706179   
     axis 1.22306e-015 90 90   XYZ
    dof rx rz
    limits (-90.0 90.0)
           (-45.0 45.0)
  end
  begin
     id 22 
     name lfingers
     direction 1 -4.49108e-011 -3.85244e-027   
     length 0.569339   
     axis 2.44611e-015 90 90   XYZ
    dof rx
    limits (0.0 90.0)
  end
  begin
     id 23
     name lthumb
     direction 0.707107 -6.34953e-011 0.707107   
     length 0.817461   
     axis -90 45 -1.62303e-014   XYZ
    dof rx rz
    limits (-45.0 45.0)
           (-45.0 45.0)
  end
  begin
     id 24 
     name rclavicle
     direction -0.905329 0.382405 -0.184787   
     length 3.30787  
     axis 0 0 0   XYZ 
    dof ry rz
    limits (-10.0 20.0)
           (-20.0 0.0)
  end
  begin
     id 25 
     name rhumerus
     direction -1 -4.48953e-011 -9.15316e-029  
     length 5.28721   
     axis 180 30 90   XYZ
    dof rx ry rz
    limits (-90.0 60.0)
           (-90.0 90.0)
           (-90.0 90.0)
  end
  begin
     id 26 
     name rradius
     direction -1 -4.48987e-011 9.37824e-028   
     length 3.50544   
     axis 180 30 90   XYZ
    dof rx
    limits (-10.0 170.0)
  end
  begin
     id 27 
     name rwrist
     direction -1 -4.48967e-011 -9.58414e-028   
     length 1.75272   
     axis 8.48502e-016 -90 -90   XYZ
    dof ry
    limits (-180.0 0.0)
  end
  begin
     id 28
     name rhand
     direction -1 -4.48904e-011 -1.91266e-027   
     length 0.884996   
     axis 1.22306e-015 -90 -90   XYZ
    dof rx rz
    limits (-90.0 90.0)
           (-45.0 45.0)
  end
  begin
     id 29
     name rfingers
     direction -1 -4.4909e-011 -3.85015e-027   
     length 0.713507   
     axis 2.44611e-015 -90 -90   XYZ
    dof rx
    limits (0.0 90.0)
  end
  begin
     id 30
     name rthumb
     direction -0.707107 -6.34853e-011 0.707107   
     length 1.02446   
     axis -90 -45 1.62303e-014   XYZ
    dof rx rz
    limits (-45.0 45.0)
           (-45.0 45.0)
  end
:hierarchy
  begin
    root lhipjoint rhipjoint lowerback
    lhipjoint lfemur
    lfemur ltibia
    ltibia lfoot
    lfoot ltoes
    rhipjoint rfemur
    rfemur rtibia
    rtibia rfoot
    rfoot rtoes
    lowerback upperback
    upperback thorax
    thorax lowerneck lclavicle rclavicle
    lowerneck upperneck
    upperneck head
    lclavicle lhumerus
    lhumerus lradius
    lradius lwrist
    lwrist lhand lthumb
    lhand lfingers
    rclavicle rhumerus
    rhumerus rradius
    rradius rwrist
    rwrist rhand rthumb
    rhand rfingers
  end

#!OML:ASF F:\twosubjects\two\Thursday\Session 1\justin.ASF
:FULLY-SPECIFIED
:DEGREES
102
root 13.6758 17.8477 -1.43557 6.49027 -42.106 1.76701
lowerback 6.41626 1.47226 0.551613
upperback 1.88877 2.00704 1.80214
thorax -1.69508 0.98925 1.38799
lowerneck -18.9444 -7.07202 -12.5875
upperneck 19.4681 -7.34101 5.13642
head 10.0019 -3.77383 2.79093
rclavicle 9.08446e-014 1.19271e-014
rhumerus -28.7921 -19.0121 -69.8545
rradius 34.8356
rwrist -2.24467
rhand -11.7589 11.1879
rfingers 7.12502
rthumb 14.2893 -18.3005
lclavicle 9.08446e-014 1.19271e-014
lhumerus -34.6325 19.1306 73.7082
lradius 36.8651
lwrist -2.99995
lhand -2.69926 37.823
lfingers 7.12502
lthumb 23.0026 66.4704
rfemur -20.1457 -6.20662 15.8721
rtibia 39.7805
rfoot -23.0935 -15.945
rtoes -19.6553
lfemur -23.6704 10.9234 -14.2683
ltibia 43.0086
lfoot -17.6305 -15.348
ltoes -16.0509
103
root 13.7087 17.8445 -1.39299 6.14568 -42.0931 2.10289
lowerback 6.49184 1.56575 0.599861
upperback 2.07399 2.12914 1.76464
thorax -1.54585 1.04891 1.3138
lowerneck -18.5851 -7.2739 -13.2288
upperneck 18.8739 -7.56598 5.57764
head 9.79434 -3.87047 3.0203
rclavicle 7.5737e-014 1.35174e-014
rhumerus -28.578 -19.2234 -69.3396
rradius 34.572
rwrist -1.8895
rhand -12.2759 10.1137
rfingers 7.12502
rthumb 13.7911 -19.4092
lclavicle 7.5737e-014 1.35174e-014
lhumerus -34.486 19.2027 73.7553
lradius 37.2799
lwrist -3.87341
lhand -1.76715 37.0773
lfingers 7.12502
lthumb 23.8967 65.6105
rfemur -20.0286 -6.22278 15.3768
rtibia 40.0202
rfoot -23.2979 -15.8206
rtoes -18.8734
lfemur -23.6724 10.7432 -14.1507
ltibia 43.4519
lfoot -18.3767 -15.523
ltoes -16.3112
104
root 13.7339 17.8473 -1.36652 5.95031 -42.2379 2.26792
lowerback 6.71144 1.67886 0.417736
upperback 2.19018 2.26719 1.76646
thorax -1.55806 1.1167 1.40249
lowerneck -18.1257 -7.39395 -13.8047
upperneck 18.2427 -7.79119 6.36227
head 9.57067 -3.92747 3.36298
rclavicle -7.196e-014 -7.95139e-016
rhumerus -28.5653 -18.941 -69.087
rradius 34.7044
rwrist -2.14414
rhand -13.0179 10.0583
rfingers 7.12502
rthumb 13.076 -19.5118
lclavicle -7.196e-014 -7.95139e-016
lhumerus -34.3687 19.1566 73.7654
lradius 37.6027
lwrist -3.97201
lhand -2.69365 36.9698
lfingers 7.12502
lthumb 23.0079 65.6166
rfemur -20.0028 -6.07422 15.0973
rtibia 40.2677
rfoot -23.4081 -15.8199
rtoes -18.5461
lfemur -23.6867 10.5969 -13.7838
ltibia 43.8344
lfoot -18.0294 -15.245
ltoes -16.1991
105
root 13.7699 17.8427 -1.3389 6.1376 -42.4289 2.21833
lowerback 6.87492 1.7332 0.406247
upperback 2.14885 2.34145 1.76039
thorax -1.69326 1.15376 1.3909
lowerneck -17.9675 -7.39717 -13.7185
upperneck 17.956 -7.86959 6.53403
head 9.45301 -3.93792 3.40068
rclavicle -5.24792e-014 1.43125e-014
rhumerus -28.6509 -18.5008 -69.0529
rradius 34.9362
rwrist -2.54884
rhand -13.1669 10.2751
rfingers 7.12502
rthumb 12.9324 -19.3041
lclavicle -5.24792e-014 1.43125e-014
lhumerus -34.2612 18.754 73.744
lradius 37.7424
lwrist -3.37793
lhand -4.64974 36.8229
lfingers 7.12502
lthumb 21.1299 65.6915
rfemur -20.3664 -6.13554 14.9875
rtibia 40.5095
rfoot -23.3838 -15.6608
rtoes -19.0022
lfemur -24.0216 10.3763 -13.2693
ltibia 44.1671
lfoot -16.8883 -14.773
ltoes -10.1488
106
root 13.8109 17.8458 -1.30485 6.09624 -42.5748 2.39031
lowerback 7.17907 1.72717 0.342572
upperback 2.07518 2.33521 1.80134
thorax -1.94217 1.15079 1.45866
lowerneck -17.9338 -7.39525 -13.779
upperneck 17.829 -7.8077 6.34931
head 9.39119 -3.93136 3.35456
rclavicle 2.13694e-013 -3.49861e-014
rhumerus -28.6433 -17.9619 -68.8118
rradius 35.0194
rwrist -2.64589
rhand -12.8769 10.7058
rfingers 7.12502
rthumb 13.2119 -18.8556
lclavicle 2.13694e-013 -3.49861e-014
lhumerus -34.3751 18.3788 73.8297
lradius 37.948
lwrist -3.22887
lhand -4.42696 36.6408
lfingers 7.12502
lthumb 21.3439 65.4853
rfemur -20.6107 -6.31511 14.677
rtibia 40.7068
rfoot -23.2976 -15.4719
rtoes -19.6269
lfemur -24.2225 10.0631 -12.8891
ltibia 44.4032
lfoot -18.5817 -12.8669
ltoes -18.335
